<svg width="560" height="624" viewBox="0 0 560 624" fill="none" xmlns="http://www.w3.org/2000/svg">
<path d="M478.678 123.731L481.624 195.807L501.026 259.199L474.948 291.353L387.967 283.206L377.24 274.506L342.52 244.065L378.021 212.743L404.099 180.589L427.414 151.842L478.678 123.731Z" fill="black"/>
<path d="M406.484 65.1797L335.353 77.1784L269.321 71.2815L243.243 103.436L269.172 186.861L279.899 195.561L316.853 223.249L340.17 182.045L366.248 149.891L389.562 121.144L406.484 65.1797Z" fill="black"/>
<ellipse cx="370.479" cy="185.635" rx="79.4161" ry="164" transform="rotate(39.0426 370.479 185.635)" fill="#AAA9AD"/>
<rect x="308.798" y="135.611" width="159" height="373" transform="rotate(39.0426 308.798 135.611)" fill="#AAA9AD"/>
<path fill-rule="evenodd" clip-rule="evenodd" d="M196.826 526.083L198.088 526.737L253.199 582.166L293.428 532.881L299.33 401.714L297.959 402.183L196.826 526.083Z" fill="black"/>
<path fill-rule="evenodd" clip-rule="evenodd" d="M73.8275 426.48L72.9253 425.382L7.25051 382.999L47.0949 333.403L174.168 300.359L173.995 301.798L73.8275 426.48Z" fill="black"/>
<path d="M178.886 359.859L159.005 401.275L113.457 457.436L105.188 450.73L96.3699 443.579L141.918 387.417L178.886 359.859Z" fill="black"/>
<path d="M239.467 408.991L219.586 450.407L174.038 506.569L165.769 499.862L156.951 492.711L202.499 436.549L239.467 408.991Z" fill="black"/>
<path d="M138.603 549.839C109.898 580.758 84.4183 605.798 92.4929 601.405C79.3762 617.562 112.537 555.802 121.523 535.973C140.648 512.415 159.975 496.422 164.691 500.251C169.408 504.08 157.728 526.281 138.603 549.839Z" fill="#FF3D00" fill-opacity="0.9"/>
<path d="M139.545 541.859C126.549 557.868 111.577 572.741 96.587 591.205C86.4436 603.7 123.876 548.666 130.228 534.296C146.631 514.091 159.288 498.49 163.951 502.275C168.614 506.06 154.998 522.824 139.545 541.859Z" fill="#FAFF00" fill-opacity="0.85"/>
<path d="M145.751 516.62C150.803 524.36 111.476 567.87 119.961 560.59C107.258 576.239 153.49 522.16 156.346 518.642C160.758 513.207 160.529 506.581 158.619 505.03C156.709 503.48 149.286 512.266 145.751 516.62Z" fill="#FF0000" fill-opacity="0.95"/>
<path d="M150.773 523.269C144.729 521.895 110.425 567.267 116.174 558.181C103.843 573.37 146.467 519.053 149.239 515.638C153.521 510.363 158.715 508.329 159.921 509.308C161.128 510.287 154.203 519.043 150.773 523.269Z" fill="#FFE600" fill-opacity="0.75"/>
<path d="M146.066 535.413C137.68 550.502 115.38 565.979 116.384 564.839C84.8473 606.859 135.922 540.771 136.713 517.585C148.135 511.448 159.687 496.306 164.403 500.135C169.12 503.964 161.421 522.048 146.066 535.413Z" fill="#FFB800" fill-opacity="0.6"/>
<path d="M101.2 587.506C96.9477 586.76 90.2469 599.156 90.5882 598.752C87.5511 602.493 96.7474 588.231 98.8711 585.615C103.774 582.604 107.506 576.239 108.324 576.904C109.143 577.569 102.791 582.517 101.2 587.506Z" fill="#FF0F00" fill-opacity="0.7"/>
<path d="M81.3697 608.76C82.9737 612.769 72.2198 621.874 72.5447 621.457C69.5077 625.198 81.5751 613.267 83.6988 610.651C85.6376 605.234 91.0996 600.274 90.281 599.609C89.4624 598.945 85.9246 606.178 81.3697 608.76Z" fill="#FF0F00" fill-opacity="0.5"/>
<path d="M93.9936 588.45C99.5247 587.621 114.652 564.845 113.989 565.645C119.958 558.292 100.497 585.199 96.3227 590.341C88.1167 597.42 79.9467 609.252 79.1281 608.588C78.3095 607.923 89.4362 597.093 93.9936 588.45Z" fill="#FFF500" fill-opacity="0.7"/>
<path d="M98.7124 595.612C93.6615 596.17 82.6576 615.902 83.167 615.213C78.6009 621.549 93.0856 598.289 96.2786 593.858C102.971 587.838 108.978 577.597 109.833 578.214C110.689 578.83 101.783 588.086 98.7124 595.612Z" fill="#FF7A00" fill-opacity="0.7"/>
<path d="M59.7051 488.365C35.3459 522.811 16.0769 552.894 18.7168 544.089C5.60011 560.246 59.2266 515.1 76.7854 502.231C95.91 478.673 107.59 456.471 102.873 452.642C98.1569 448.813 78.8297 464.807 59.7051 488.365Z" fill="#FF3D00" fill-opacity="0.9"/>
<path d="M67.3215 485.803C54.3253 501.812 42.8468 519.521 27.8573 537.986C17.7139 550.481 63.8801 502.537 76.638 493.367C93.0404 473.162 105.707 457.568 101.044 453.783C96.3814 449.997 82.7742 466.768 67.3215 485.803Z" fill="#FAFF00" fill-opacity="0.85"/>
<path d="M90.7466 474.542C82.133 471.189 47.6345 518.619 53.0147 508.818C40.3113 524.467 83.7342 468.107 86.5903 464.589C91.0022 459.155 97.5341 458.017 99.4441 459.568C101.354 461.118 94.281 470.189 90.7466 474.542Z" fill="#FF0000" fill-opacity="0.95"/>
<path d="M83.2073 470.995C85.7941 476.627 48.4409 519.523 56.1509 512.03C43.8206 527.219 88.2182 474.342 90.9903 470.927C95.2726 465.652 96.1963 460.151 94.9899 459.172C93.7836 458.193 86.6379 466.769 83.2073 470.995Z" fill="#FFE600" fill-opacity="0.75"/>
<path d="M72.2898 478.097C59.246 489.404 48.6827 514.409 49.5919 513.193C14.95 552.692 69.1303 489.125 91.6595 483.586C95.3178 471.147 107.763 456.729 103.046 452.901C98.3293 449.072 82.2132 460.323 72.2898 478.097Z" fill="#FFB800" fill-opacity="0.6"/>
<path d="M30.5297 532.711C32.1337 536.719 21.3797 545.825 21.7047 545.408C18.6677 549.149 30.7351 537.218 32.8588 534.602C34.7975 529.184 40.2596 524.224 39.441 523.56C38.6224 522.895 35.0846 530.129 30.5297 532.711Z" fill="#FF0F00" fill-opacity="0.7"/>
<path d="M13.8046 556.486C9.55206 555.74 2.8512 568.136 3.19252 567.732C0.155482 571.473 9.35175 557.211 11.4755 554.595C16.3785 551.585 20.1102 545.22 20.9288 545.884C21.7474 546.549 15.3952 551.498 13.8046 556.486Z" fill="#FF0F00" fill-opacity="0.5"/>
<path d="M31.0868 539.958C30.7613 534.374 49.9417 514.889 49.2951 515.702C55.2644 508.349 32.9318 532.925 28.7576 538.067C23.5159 547.553 13.6156 557.98 14.4341 558.644C15.2527 559.309 23.5651 546.194 31.0868 539.958Z" fill="#FFF500" fill-opacity="0.7"/>
<path d="M23.1073 536.812C23.6 541.869 6.55052 556.694 7.11992 556.053C1.8581 561.824 21.6447 542.868 25.3241 538.833C29.8403 531.046 38.6281 523.063 37.849 522.352C37.0698 521.642 29.8417 532.259 23.1073 536.812Z" fill="#FF7A00" fill-opacity="0.7"/>
<g style="mix-blend-mode:darken">
<path d="M462.209 63.444C431.226 45.1201 400.455 70.0181 372 86.6136L466.11 164C480.428 121.556 497.317 84.207 462.209 63.444Z" fill="black"/>
<path d="M462.209 63.444C431.226 45.1201 400.455 70.0181 372 86.6136L466.11 164C480.428 121.556 497.317 84.207 462.209 63.444Z" stroke="black"/>
</g>
<path d="M367 93L462.5 173.5L449.5 198.5L346 111L367 93Z" fill="black"/>
<path d="M322.5 140.5L342 119L441.5 205.5L422 231L322.5 140.5Z" fill="black"/>
<path d="M415.5 239L317 148.5L292 177.5L391.5 265.5L415.5 239Z" fill="black"/>
<path d="M367 93L462.5 173.5L449.5 198.5L346 111L367 93Z" stroke="black"/>
<path d="M322.5 140.5L342 119L441.5 205.5L422 231L322.5 140.5Z" stroke="black"/>
<path d="M415.5 239L317 148.5L292 177.5L391.5 265.5L415.5 239Z" stroke="black"/>
<path d="M184.962 411.604C185.769 406.659 187.389 397.318 189.49 387.539C188.595 387.394 187.777 387.262 187.112 387.15C186.822 387.101 186.546 386.989 186.305 386.821C186.063 386.654 185.862 386.435 185.715 386.18C185.569 385.925 185.48 385.641 185.456 385.348C185.432 385.055 185.473 384.761 185.576 384.485C187.616 378.929 193.293 364.369 199.657 355.834C199.763 355.684 199.863 355.495 199.97 355.356C201.904 352.84 204.315 350.731 207.064 349.147C209.814 347.564 212.848 346.537 215.994 346.126C219.141 345.715 222.337 345.928 225.401 346.752C228.465 347.577 231.336 348.997 233.852 350.931C236.367 352.865 238.477 355.276 240.06 358.025C241.644 360.775 242.67 363.809 243.081 366.955C243.492 370.102 243.279 373.298 242.455 376.362C241.63 379.426 240.211 382.297 238.276 384.813C238.17 384.952 238.013 385.097 237.894 385.238C231.28 393.593 218.678 402.803 213.819 406.2C213.579 406.37 213.305 406.486 213.016 406.538C212.726 406.59 212.429 406.577 212.145 406.5C211.862 406.424 211.598 406.285 211.374 406.095C211.15 405.905 210.971 405.667 210.85 405.399C210.572 404.798 210.234 404.03 209.864 403.203C200.964 407.74 192.341 411.705 187.769 413.751C187.439 413.9 187.074 413.957 186.714 413.915C186.354 413.874 186.013 413.736 185.725 413.515C185.437 413.295 185.214 413.001 185.08 412.665C184.946 412.328 184.905 411.962 184.962 411.604V411.604ZM203.696 371.741C204.103 374.854 205.423 377.776 207.49 380.138C209.557 382.5 212.278 384.196 215.31 385.012C218.341 385.827 221.546 385.726 224.519 384.72C227.492 383.714 230.101 381.85 232.014 379.361C233.928 376.873 235.061 373.873 235.27 370.741C235.478 367.609 234.754 364.486 233.187 361.766C231.621 359.046 229.283 356.851 226.47 355.459C223.656 354.068 220.493 353.542 217.38 353.948C215.313 354.218 213.32 354.892 211.513 355.932C209.707 356.972 208.123 358.358 206.853 360.01C205.582 361.662 204.649 363.549 204.107 365.562C203.566 367.574 203.426 369.674 203.696 371.741V371.741ZM219.947 373.623C219.846 372.845 219.977 372.054 220.325 371.351C220.673 370.647 221.222 370.063 221.902 369.671C222.582 369.28 223.363 369.099 224.146 369.151C224.929 369.204 225.679 369.487 226.301 369.965C226.923 370.444 227.389 371.096 227.641 371.839C227.892 372.583 227.917 373.384 227.713 374.142C227.509 374.9 227.085 375.58 226.494 376.096C225.904 376.613 225.173 376.943 224.395 377.045C223.878 377.113 223.353 377.078 222.85 376.943C222.346 376.808 221.874 376.574 221.461 376.257C221.048 375.939 220.702 375.543 220.442 375.091C220.182 374.639 220.014 374.14 219.947 373.623L219.947 373.623ZM214.729 364.299C214.679 363.91 214.744 363.514 214.918 363.163C215.092 362.811 215.367 362.519 215.707 362.323C216.047 362.127 216.437 362.037 216.829 362.063C217.22 362.089 217.595 362.231 217.906 362.47C218.217 362.709 218.45 363.035 218.576 363.407C218.702 363.779 218.714 364.179 218.612 364.558C218.51 364.937 218.298 365.277 218.003 365.536C217.708 365.794 217.342 365.959 216.953 366.01C216.432 366.076 215.905 365.933 215.489 365.613C215.072 365.292 214.799 364.82 214.729 364.299L214.729 364.299Z" fill="black"/>
</svg>
